<svg width="214" height="147" viewBox="0 0 214 147" fill="none" xmlns="http://www.w3.org/2000/svg">
<path d="M5.15962 83.4306C7.24257 85.0655 9.41527 85.9456 12.033 85.9456C15.0733 85.9456 16.8944 84.69 16.8944 82.7052C16.8944 80.7205 15.4884 79.5569 11.2065 78.71C4.01531 77.2592 0.436523 73.6728 0.436523 68.2599C0.436523 62.7881 5.19702 58.7598 12.4032 58.7598C18.9587 58.7598 23.1096 61.8749 24.7738 66.8128C25.2225 68.1678 24.4222 69.0479 22.9825 69.0479H18.7418C17.5638 69.0479 17.0178 68.4808 16.4158 67.4756C15.6679 66.3083 14.4637 65.6787 12.8333 65.6787C10.754 65.6787 9.02635 66.717 9.02635 68.3888C9.02635 70.0605 10.5932 71.5334 14.3066 72.2882C21.9765 73.8311 25.488 77.2924 25.488 82.7973C25.488 88.56 20.6004 92.8719 12.3995 92.8719C8.02414 92.8719 4.37805 91.0307 1.24801 87.5179C0.384169 86.5789 0.481401 85.6032 1.31533 84.69L2.30258 83.5853C3.16642 82.6095 4.12375 82.58 5.17458 83.4306" fill="white"/>
<path d="M45.4069 58.7598C55.9563 58.7598 63.787 66.2789 63.787 75.8158C63.787 85.3528 55.9563 92.8682 45.4069 92.8682C34.8575 92.8682 27.0269 85.3491 27.0269 75.8158C27.0269 66.2825 34.88 58.7598 45.4069 58.7598ZM45.4069 85.2239C47.2977 85.2246 49.1462 84.6731 50.7187 83.6392C52.2911 82.6053 53.5168 81.1355 54.2407 79.4155C54.9646 77.6956 55.1542 75.8029 54.7856 73.9769C54.4169 72.1508 53.5064 70.4735 52.1694 69.157C50.8325 67.8405 49.129 66.9441 47.2745 66.581C45.42 66.218 43.4978 66.4047 41.7511 67.1175C40.0044 67.8303 38.5116 69.0372 37.4616 70.5855C36.4116 72.1338 35.8515 73.954 35.8523 75.8158C35.8321 77.0568 36.0654 78.2891 36.5384 79.4395C37.0114 80.59 37.7145 81.635 38.6057 82.5126C39.497 83.3903 40.5584 84.0825 41.7267 84.5483C42.8951 85.014 44.1466 85.2438 45.4069 85.2239Z" fill="white"/>
<path d="M68.256 46.1621H72.9529C74.2655 46.1621 74.9985 46.8986 74.9985 48.18V90.1131C74.9985 91.4056 74.2506 92.131 72.9529 92.131H68.256C66.9434 92.131 66.2104 91.3945 66.2104 90.1131V48.18C66.2104 46.8875 66.9584 46.1621 68.256 46.1621Z" fill="white"/>
<path d="M93.4447 58.7598C98.0781 58.7598 101.821 60.5162 104.473 63.4141V61.5288C104.473 60.2363 105.221 59.5146 106.515 59.5146H111.118C112.431 59.5146 113.164 60.2511 113.164 61.5288V90.1175C113.164 91.41 112.416 92.1354 111.118 92.1354H106.5C105.191 92.1354 104.458 91.399 104.458 90.1175V88.2359C101.806 91.1265 98.0631 92.8866 93.4298 92.8866C84.193 92.8866 77.4468 85.3675 77.4468 75.8342C77.4468 66.301 84.178 58.7782 93.4298 58.7782L93.4447 58.7598ZM95.3183 85.2423C100.427 85.2423 104.458 81.155 104.458 75.8342C104.458 70.5134 100.441 66.4041 95.3332 66.4041C90.2249 66.4041 86.2834 70.5245 86.2834 75.8158C86.2834 81.1072 90.2436 85.2239 95.3332 85.2239" fill="white"/>
<path d="M126.606 74.8376V90.1152C126.606 91.4076 125.858 92.133 124.561 92.133H119.86C118.551 92.133 117.818 91.3966 117.818 90.1152V61.5411C117.818 60.2524 118.566 59.527 119.86 59.527H124.561C125.873 59.527 126.606 60.2634 126.606 61.5411V63.5258C128.719 60.7531 131.655 58.7721 135.458 58.7721C135.899 58.7657 136.339 58.8089 136.771 58.901C137.952 59.1182 138.431 60.0646 138.337 61.2281L138.046 64.8772C137.922 66.2323 137.088 66.7367 135.682 66.5121C135.238 66.4544 134.791 66.4237 134.344 66.4201C130.122 66.4201 126.606 69.7893 126.606 74.856" fill="white"/>
<path d="M5.09436 123.665C7.16235 125.297 9.33131 126.18 11.9453 126.18C14.9743 126.18 16.788 124.925 16.788 122.947C16.788 120.97 15.3894 119.806 11.1188 118.959C3.94256 117.516 0.375 113.937 0.375 108.539C0.375 103.082 5.12427 99.0645 12.2968 99.0645C18.8299 99.0645 22.9733 102.169 24.6374 107.095C25.0862 108.447 24.2896 109.323 22.8574 109.323H18.6242C17.4425 109.323 16.904 108.76 16.2982 107.754C15.5502 106.595 14.3536 105.969 12.7268 105.969C10.6551 105.969 8.93491 107 8.93491 108.664C8.93491 110.391 10.4981 111.805 14.1928 112.556C21.844 114.095 25.3517 117.546 25.3517 123.039C25.3517 128.787 20.4902 133.084 12.2818 133.084C7.914 133.084 4.27913 131.243 1.15657 127.749C0.300207 126.806 0.408658 125.834 1.22389 124.925L2.2074 123.82C3.0675 122.848 4.02484 122.815 5.0794 123.662" fill="white"/>
<path d="M42.84 99.0586C47.4621 99.0586 51.1905 100.819 53.8381 103.702V101.82C53.8381 100.535 54.586 99.8098 55.8762 99.8098H60.4646C61.7735 99.8098 62.5064 100.546 62.5064 101.82V144.902C62.5064 146.187 61.7585 146.909 60.4646 146.909H55.8762C54.571 146.909 53.8381 146.173 53.8381 144.902V128.439C51.1905 131.322 47.4621 133.086 42.84 133.086C33.6256 133.086 26.9019 125.578 26.9019 116.07C26.9019 106.563 33.6331 99.0586 42.84 99.0586ZM44.7098 125.456C49.8106 125.456 53.8306 121.373 53.8306 116.07C53.8306 110.768 49.818 106.684 44.7172 106.684C39.6164 106.684 35.7011 110.794 35.7011 116.067C35.7011 121.34 39.6501 125.464 44.7172 125.464" fill="white"/>
<path d="M66.4946 119.943V101.823C66.4946 100.538 67.2426 99.8164 68.5327 99.8164H73.2259C74.5347 99.8164 75.2677 100.553 75.2677 101.823V119.027C75.2677 122.631 78.136 125.459 81.5128 125.459C85.66 125.459 88.992 122.26 88.992 117.141V101.823C88.992 100.538 89.7399 99.8164 91.03 99.8164H95.7158C97.0246 99.8164 97.7576 100.553 97.7576 101.823V130.324C97.7576 131.609 97.0096 132.334 95.7158 132.334H91.0338C89.7287 132.334 88.9957 131.598 88.9957 130.324V128.722C87.8533 130.091 86.4162 131.193 84.7884 131.948C83.1606 132.703 81.3827 133.093 79.5832 133.089C71.8385 133.089 66.4946 127.812 66.4946 119.936" fill="white"/>
<path d="M116.168 99.0586C120.786 99.0586 124.522 100.819 127.166 103.702V101.82C127.166 100.535 127.914 99.8098 129.208 99.8098H133.796C135.101 99.8098 135.834 100.546 135.834 101.82V130.317C135.834 131.606 135.086 132.327 133.796 132.327H129.208C127.899 132.327 127.166 131.591 127.166 130.317V128.439C124.522 131.322 120.786 133.086 116.168 133.086C106.957 133.086 100.233 125.578 100.233 116.07C100.233 106.563 106.965 99.0586 116.168 99.0586ZM118.038 125.456C123.135 125.456 127.155 121.373 127.155 116.07C127.155 110.768 123.146 106.684 118.049 106.684C112.952 106.684 109.033 110.794 109.033 116.067C109.033 121.34 112.978 125.464 118.049 125.464" fill="white"/>
<path d="M149.266 115.101V130.32C149.266 131.609 148.518 132.33 147.228 132.33H142.538C141.233 132.33 140.5 131.594 140.5 130.32V101.823C140.5 100.534 141.248 99.8126 142.538 99.8126H147.228C148.536 99.8126 149.266 100.549 149.266 101.823V103.8C151.371 101.039 154.303 99.0651 158.098 99.0651C158.535 99.0585 158.972 99.0993 159.4 99.1867C160.585 99.4076 161.06 100.35 160.963 101.51L160.679 105.152C160.552 106.5 159.721 106.993 158.319 106.783C157.882 106.721 157.441 106.689 156.999 106.687C152.792 106.687 149.284 110.046 149.284 115.098" fill="white"/>
<path d="M178.512 126.202C182.308 126.202 185.244 125.138 187.884 123.094C188.905 122.31 189.892 122.358 190.782 123.219L192.345 124.758C193.272 125.668 193.34 126.706 192.409 127.616C190.584 129.39 188.417 130.788 186.036 131.725C183.654 132.663 181.107 133.123 178.542 133.076C167.26 133.076 159.77 125.572 159.77 116.065C159.77 106.557 167.484 99.0527 177.72 99.0527C187.816 99.0527 195.03 106.417 195.03 115.498C195.03 115.91 194.996 116.381 194.967 116.819C194.836 118.042 194.005 118.635 192.764 118.635H168.632C169.399 123.16 173.221 126.202 178.512 126.202ZM168.857 112.489H185.999C185.034 108.634 181.923 105.95 177.652 105.95C175.657 105.938 173.714 106.574 172.124 107.761C170.533 108.947 169.385 110.617 168.857 112.511" fill="white"/>
<path d="M157.821 13.6505V5.57539C157.823 5.17987 157.73 4.78944 157.549 4.43618C157.369 4.08291 157.106 3.7769 156.781 3.54328C156.457 3.30966 156.082 3.15509 155.685 3.09228C155.288 3.02946 154.882 3.0602 154.5 3.18195C150.581 4.46012 146.863 6.27084 143.453 8.56167C143.114 8.79304 142.837 9.10248 142.647 9.46312C142.457 9.82375 142.359 10.2247 142.361 10.6311V13.6505C142.361 14.3149 142.629 14.9522 143.106 15.4223C143.583 15.8925 144.23 16.1571 144.904 16.1581H155.27C155.605 16.1586 155.937 16.0941 156.246 15.9683C156.556 15.8425 156.837 15.6578 157.074 15.4249C157.31 15.192 157.498 14.9154 157.627 14.611C157.755 14.3065 157.821 13.9801 157.821 13.6505Z" fill="#00BDFF"/>
<path d="M176.345 13.6523V3.76554C176.341 3.14839 176.108 2.55394 175.69 2.09413C175.272 1.63431 174.698 1.34085 174.075 1.269C170.447 0.827001 166.777 0.827001 163.148 1.269C162.526 1.34092 161.952 1.63452 161.534 2.09442C161.117 2.55431 160.885 3.14872 160.882 3.76554V13.6523C160.882 14.3167 161.15 14.954 161.626 15.4241C162.103 15.8943 162.75 16.1589 163.425 16.1599H173.791C174.126 16.1604 174.458 16.0959 174.767 15.9701C175.077 15.8444 175.358 15.6598 175.595 15.427C175.833 15.1941 176.021 14.9175 176.149 14.613C176.278 14.3085 176.345 13.9821 176.345 13.6523Z" fill="#00BDFF"/>
<path d="M194.86 13.6505V10.6311C194.863 10.2247 194.765 9.82375 194.574 9.46312C194.384 9.10248 194.107 8.79304 193.768 8.56167C190.358 6.27013 186.64 4.45936 182.721 3.18195C182.339 3.0602 181.933 3.02946 181.536 3.09228C181.14 3.15509 180.764 3.30966 180.44 3.54328C180.116 3.7769 179.852 4.08291 179.672 4.43618C179.491 4.78944 179.398 5.17987 179.4 5.57539V13.6505C179.4 13.9796 179.465 14.3056 179.593 14.6098C179.721 14.9141 179.908 15.1905 180.144 15.4234C180.38 15.6563 180.661 15.8411 180.969 15.9671C181.278 16.0932 181.609 16.1581 181.943 16.1581H192.309C192.644 16.1586 192.976 16.0941 193.285 15.9683C193.595 15.8425 193.876 15.6578 194.113 15.4249C194.35 15.192 194.537 14.9154 194.666 14.611C194.794 14.3065 194.86 13.9801 194.86 13.6505Z" fill="#00BDFF"/>
<path d="M136.771 19.1758H133.705C133.292 19.1734 132.884 19.27 132.517 19.4574C132.151 19.6447 131.836 19.9171 131.6 20.251C129.275 23.6107 127.436 27.2712 126.132 31.1283C126.01 31.5052 125.98 31.9052 126.045 32.2956C126.11 32.686 126.268 33.0558 126.506 33.3746C126.743 33.6935 127.054 33.9525 127.413 34.1304C127.772 34.3082 128.169 34.4 128.57 34.3981H136.771C137.106 34.3986 137.437 34.3341 137.746 34.2082C138.056 34.0824 138.337 33.8977 138.573 33.6647C138.81 33.4318 138.997 33.1552 139.125 32.8507C139.253 32.5463 139.318 32.22 139.318 31.8905V21.6834C139.317 21.0187 139.048 20.3814 138.571 19.9114C138.094 19.4413 137.446 19.1768 136.771 19.1758Z" fill="#00BDFF"/>
<path d="M144.908 19.1758H155.274C155.95 19.1758 156.597 19.44 157.075 19.9102C157.552 20.3805 157.821 21.0183 157.821 21.6834V31.8905C157.821 32.2199 157.756 32.5462 157.628 32.8507C157.5 33.1551 157.313 33.4318 157.076 33.6647C156.839 33.8977 156.558 34.0823 156.249 34.2082C155.94 34.334 155.609 34.3986 155.274 34.3981H144.908C144.573 34.3986 144.242 34.334 143.933 34.2082C143.624 34.0823 143.343 33.8977 143.106 33.6647C142.87 33.4318 142.682 33.1551 142.554 32.8507C142.426 32.5462 142.361 32.2199 142.361 31.8905V21.6834C142.362 21.0186 142.631 20.3814 143.108 19.9113C143.586 19.4413 144.233 19.1768 144.908 19.1758Z" fill="#00BDFF"/>
<path d="M163.427 19.1758H173.811C174.487 19.1758 175.135 19.44 175.612 19.9102C176.09 20.3805 176.358 21.0183 176.358 21.6834V31.8905C176.359 32.2199 176.293 32.5462 176.165 32.8507C176.037 33.1551 175.85 33.4318 175.613 33.6647C175.377 33.8977 175.096 34.0823 174.787 34.2082C174.477 34.334 174.146 34.3986 173.811 34.3981H163.427C163.092 34.3986 162.761 34.334 162.451 34.2082C162.142 34.0823 161.861 33.8977 161.625 33.6647C161.388 33.4318 161.201 33.1551 161.073 32.8507C160.945 32.5462 160.879 32.2199 160.88 31.8905V21.6834C160.881 21.0186 161.15 20.3814 161.627 19.9113C162.104 19.4413 162.751 19.1768 163.427 19.1758Z" fill="#00BDFF"/>
<path d="M136.773 37.4102H126.732C126.105 37.4139 125.501 37.6432 125.033 38.0548C124.566 38.4664 124.267 39.032 124.193 39.6453C123.748 43.2171 123.748 46.8292 124.193 50.401C124.267 51.014 124.566 51.5791 125.033 51.9901C125.501 52.4011 126.105 52.6296 126.732 52.6325H136.773C137.107 52.6329 137.439 52.5684 137.748 52.4426C138.057 52.3167 138.338 52.132 138.575 51.8991C138.811 51.6661 138.999 51.3895 139.127 51.085C139.255 50.7806 139.32 50.4543 139.32 50.1249V39.9177C139.32 39.2527 139.051 38.6149 138.574 38.1446C138.096 37.6743 137.448 37.4102 136.773 37.4102Z" fill="#00BDFF"/>
<path d="M144.908 37.4102H155.274C155.609 37.4097 155.94 37.4742 156.249 37.6C156.558 37.7259 156.839 37.9106 157.076 38.1435C157.313 38.3765 157.5 38.6531 157.628 38.9576C157.756 39.262 157.821 39.5883 157.821 39.9177V50.1249C157.821 50.4543 157.756 50.7806 157.628 51.085C157.5 51.3895 157.313 51.6661 157.076 51.8991C156.839 52.132 156.558 52.3167 156.249 52.4426C155.94 52.5684 155.609 52.6329 155.274 52.6325H144.908C144.573 52.6329 144.242 52.5684 143.933 52.4426C143.624 52.3167 143.343 52.132 143.106 51.8991C142.87 51.6661 142.682 51.3895 142.554 51.085C142.426 50.7806 142.361 50.4543 142.361 50.1249V39.9177C142.361 39.2527 142.63 38.6149 143.107 38.1446C143.585 37.6743 144.233 37.4102 144.908 37.4102Z" fill="#00BDFF"/>
<path d="M163.428 37.4102H173.813C174.148 37.4097 174.479 37.4742 174.788 37.6C175.098 37.7259 175.379 37.9106 175.615 38.1435C175.852 38.3765 176.039 38.6531 176.167 38.9576C176.295 39.262 176.36 39.5883 176.36 39.9177V50.1249C176.36 50.4543 176.295 50.7806 176.167 51.085C176.039 51.3895 175.852 51.6661 175.615 51.8991C175.379 52.132 175.098 52.3167 174.788 52.4426C174.479 52.5684 174.148 52.6329 173.813 52.6325H163.428C163.094 52.6329 162.763 52.5684 162.453 52.4426C162.144 52.3167 161.863 52.132 161.627 51.8991C161.39 51.6661 161.202 51.3895 161.075 51.085C160.947 50.7806 160.881 50.4543 160.882 50.1249V39.9177C160.882 39.2527 161.15 38.6149 161.628 38.1446C162.105 37.6743 162.753 37.4102 163.428 37.4102Z" fill="#00BDFF"/>
<path d="M181.947 37.4102H192.313C192.648 37.4097 192.979 37.4742 193.289 37.6C193.598 37.7258 193.879 37.9104 194.116 38.1433C194.353 38.3762 194.541 38.6528 194.669 38.9573C194.798 39.2618 194.864 39.5881 194.864 39.9177V50.1249C194.864 50.4545 194.798 50.7809 194.669 51.0853C194.541 51.3898 194.353 51.6664 194.116 51.8993C193.879 52.1322 193.598 52.3168 193.289 52.4426C192.979 52.5684 192.648 52.6329 192.313 52.6325H181.947C181.612 52.6329 181.281 52.5684 180.972 52.4426C180.663 52.3167 180.382 52.132 180.145 51.8991C179.909 51.6661 179.721 51.3895 179.593 51.085C179.465 50.7806 179.4 50.4543 179.4 50.1249V39.9177C179.4 39.2527 179.669 38.6149 180.146 38.1446C180.624 37.6743 181.272 37.4102 181.947 37.4102Z" fill="#00BDFF"/>
<path d="M200.462 52.6325H210.499C211.127 52.6296 211.732 52.4007 212.2 51.989C212.668 51.5774 212.968 51.0112 213.042 50.3973C213.486 46.8255 213.486 43.2135 213.042 39.6416C212.967 39.0283 212.667 38.4631 212.199 38.0522C211.731 37.6413 211.126 37.4129 210.499 37.4102H200.462C199.786 37.4102 199.139 37.6743 198.661 38.1446C198.183 38.6149 197.915 39.2527 197.915 39.9177V50.1249C197.915 50.7899 198.183 51.4277 198.661 51.898C199.139 52.3683 199.786 52.6325 200.462 52.6325Z" fill="#00BDFF"/>
<path d="M163.428 55.6367H173.813C174.148 55.6362 174.479 55.7008 174.788 55.8266C175.098 55.9525 175.379 56.1371 175.615 56.3701C175.852 56.603 176.039 56.8797 176.167 57.1841C176.295 57.4886 176.36 57.8149 176.36 58.1443V68.3514C176.36 68.6809 176.295 69.0072 176.167 69.3116C176.039 69.6161 175.852 69.8927 175.615 70.1256C175.379 70.3586 175.098 70.5433 174.788 70.6691C174.479 70.795 174.148 70.8595 173.813 70.859H163.428C163.094 70.8595 162.763 70.795 162.453 70.6691C162.144 70.5433 161.863 70.3586 161.627 70.1256C161.39 69.8927 161.202 69.6161 161.075 69.3116C160.947 69.0072 160.881 68.6809 160.882 68.3514V58.1443C160.882 57.4793 161.15 56.8414 161.628 56.3712C162.105 55.9009 162.753 55.6367 163.428 55.6367Z" fill="#00BDFF"/>
<path d="M181.947 55.6367H192.313C192.648 55.6362 192.979 55.7007 193.289 55.8265C193.598 55.9523 193.879 56.137 194.116 56.3699C194.353 56.6028 194.541 56.8794 194.669 57.1838C194.798 57.4883 194.864 57.8147 194.864 58.1443V68.3514C194.864 68.681 194.798 69.0074 194.669 69.3119C194.541 69.6164 194.353 69.893 194.116 70.1259C193.879 70.3588 193.598 70.5434 193.289 70.6692C192.979 70.795 192.648 70.8595 192.313 70.859H181.947C181.612 70.8595 181.281 70.795 180.972 70.6691C180.663 70.5433 180.382 70.3586 180.145 70.1256C179.909 69.8927 179.721 69.6161 179.593 69.3116C179.465 69.0072 179.4 68.6809 179.4 68.3514V58.1443C179.4 57.4793 179.669 56.8414 180.146 56.3712C180.624 55.9009 181.272 55.6367 181.947 55.6367Z" fill="#00BDFF"/>
<path d="M200.462 70.8627H203.528C203.941 70.8651 204.349 70.768 204.715 70.58C205.081 70.392 205.395 70.1186 205.63 69.7838C207.954 66.4242 209.794 62.7636 211.097 58.9066C211.22 58.53 211.25 58.13 211.186 57.7396C211.122 57.3491 210.964 56.9792 210.727 56.6602C210.489 56.3412 210.178 56.0821 209.82 55.9042C209.461 55.7263 209.064 55.6347 208.663 55.6368H200.462C199.787 55.6368 199.14 55.9004 198.662 56.3699C198.185 56.8394 197.916 57.4762 197.915 58.1407V68.3478C197.915 68.6776 197.98 69.0042 198.108 69.3091C198.235 69.6139 198.423 69.8911 198.659 70.1246C198.896 70.3581 199.177 70.5435 199.486 70.6702C199.795 70.7968 200.127 70.8623 200.462 70.8627Z" fill="#00BDFF"/>
<path d="M142.361 76.3826V79.4057C142.358 79.8113 142.455 80.2116 142.645 80.5717C142.835 80.9318 143.111 81.2407 143.45 81.4714C146.862 83.7606 150.581 85.5723 154.5 86.8548C154.882 86.975 155.287 87.0046 155.683 86.9411C156.079 86.8776 156.454 86.7228 156.777 86.4894C157.101 86.2561 157.364 85.9507 157.544 85.5982C157.725 85.2457 157.818 84.8562 157.817 84.4614V76.3826C157.818 76.0535 157.752 75.7275 157.625 75.4233C157.497 75.119 157.31 74.8426 157.074 74.6097C156.837 74.3768 156.557 74.192 156.248 74.0659C155.939 73.9399 155.608 73.875 155.274 73.875H144.908C144.233 73.875 143.585 74.1392 143.107 74.6095C142.63 75.0797 142.361 75.7175 142.361 76.3826Z" fill="#00BDFF"/>
<path d="M160.88 76.3826V86.2657C160.884 86.8836 161.116 87.479 161.534 87.94C161.952 88.4011 162.527 88.696 163.15 88.7696C166.777 89.2076 170.446 89.2076 174.073 88.7696C174.696 88.696 175.27 88.4009 175.687 87.9398C176.105 87.4787 176.337 86.8833 176.339 86.2657V76.3826C176.34 76.0532 176.274 75.7269 176.146 75.4224C176.019 75.118 175.831 74.8413 175.595 74.6084C175.358 74.3754 175.077 74.1907 174.768 74.0649C174.459 73.939 174.127 73.8745 173.793 73.875H163.427C162.751 73.875 162.103 74.1392 161.626 74.6095C161.148 75.0797 160.88 75.7175 160.88 76.3826Z" fill="#00BDFF"/>
<path d="M179.4 76.3826V84.4614C179.399 84.8566 179.492 85.2466 179.673 85.5995C179.854 85.9523 180.117 86.2579 180.441 86.4914C180.765 86.7249 181.141 86.8795 181.537 86.9427C181.933 87.0058 182.339 86.9757 182.721 86.8548C186.639 85.5731 190.357 83.7613 193.768 81.4714C194.107 81.2407 194.383 80.9318 194.573 80.5717C194.762 80.2116 194.86 79.8113 194.856 79.4057V76.3826C194.857 76.0535 194.791 75.7275 194.664 75.4233C194.536 75.119 194.349 74.8426 194.113 74.6097C193.876 74.3768 193.596 74.192 193.287 74.0659C192.978 73.9399 192.647 73.875 192.313 73.875H181.947C181.272 73.875 180.624 74.1392 180.146 74.6095C179.669 75.0797 179.4 75.7175 179.4 76.3826Z" fill="#00BDFF"/>
</svg>
