<svg width="36" height="36" viewBox="0 0 36 36" fill="none" xmlns="http://www.w3.org/2000/svg">
<mask id="mask0_219_23963" style="mask-type:alpha" maskUnits="userSpaceOnUse" x="0" y="0" width="36" height="36">
<rect width="36" height="36" fill="#D9D9D9"/>
</mask>
<g mask="url(#mask0_219_23963)">
<path d="M18 18C18.825 18 19.5313 17.7063 20.1188 17.1188C20.7063 16.5313 21 15.825 21 15C21 14.175 20.7063 13.4688 20.1188 12.8813C19.5313 12.2937 18.825 12 18 12C17.175 12 16.4688 12.2937 15.8813 12.8813C15.2937 13.4688 15 14.175 15 15C15 15.825 15.2937 16.5313 15.8813 17.1188C16.4688 17.7063 17.175 18 18 18ZM18 29.025C21.05 26.225 23.3125 23.6812 24.7875 21.3937C26.2625 19.1062 27 17.075 27 15.3C27 12.575 26.1313 10.3438 24.3937 8.60625C22.6562 6.86875 20.525 6 18 6C15.475 6 13.3438 6.86875 11.6062 8.60625C9.86875 10.3438 9 12.575 9 15.3C9 17.075 9.7375 19.1062 11.2125 21.3937C12.6875 23.6812 14.95 26.225 18 29.025ZM18 33C13.975 29.575 10.9688 26.3937 8.98125 23.4562C6.99375 20.5187 6 17.8 6 15.3C6 11.55 7.20625 8.5625 9.61875 6.3375C12.0313 4.1125 14.825 3 18 3C21.175 3 23.9688 4.1125 26.3813 6.3375C28.7938 8.5625 30 11.55 30 15.3C30 17.8 29.0063 20.5187 27.0187 23.4562C25.0312 26.3937 22.025 29.575 18 33Z" fill="#F9FAFB"/>
</g>
</svg>
